{"glyphs":{"0":{"ha":694,"x_min":0,"x_max":0,"o":"m 132 0 l 563 0 l 563 611 l 132 611 z m 460 511 l 460 97 l 240 97 l 240 510 z "},"1":{"ha":694,"x_min":0,"x_max":0,"o":"m 483 0 l 483 611 l 146 610 l 146 514 l 381 514 l 381 0 z "},"2":{"ha":694,"x_min":0,"x_max":0,"o":"m 563 101 l 296 101 l 563 306 l 563 611 l 132 611 l 132 389 l 235 389 l 235 510 l 454 510 l 454 375 l 135 107 l 135 1 l 563 0 z "},"3":{"ha":694,"x_min":0,"x_max":0,"o":"m 453 265 l 243 265 l 243 347 l 399 510 l 132 510 l 132 611 l 560 610 l 560 504 l 406 347 l 563 347 l 563 0 l 132 0 l 132 181 l 235 181 l 235 101 l 453 101 z "},"4":{"ha":694,"x_min":0,"x_max":0,"o":"m 410 101 l 238 101 l 410 399 z m 518 -139 l 518 0 l 601 0 l 601 101 l 518 101 l 518 611 l 410 611 l 104 107 l 104 1 l 410 0 l 410 -139 z "},"5":{"ha":694,"x_min":0,"x_max":0,"o":"m 453 265 l 132 265 l 132 610 l 563 610 l 563 506 l 251 504 l 251 375 l 563 375 l 563 0 l 132 0 l 132 181 l 235 181 l 235 101 l 453 101 z "},"6":{"ha":694,"x_min":0,"x_max":0,"o":"m 132 610 l 132 0 l 563 0 l 563 375 l 235 375 l 235 504 l 563 506 l 563 610 z m 453 265 l 453 101 l 235 101 l 235 265 z "},"7":{"ha":694,"x_min":0,"x_max":0,"o":"m 561 504 l 353 0 l 203 1 l 442 504 l 133 504 l 133 610 l 561 610 z "},"8":{"ha":694,"x_min":0,"x_max":0,"o":"m 242 346 l 242 510 l 460 510 l 460 346 z m 242 236 l 460 236 l 460 107 l 242 106 z m 132 611 l 132 1 l 563 0 l 563 611 z "},"9":{"ha":694,"x_min":0,"x_max":0,"o":"m 563 0 l 563 611 l 132 611 l 132 236 l 460 236 l 460 107 l 132 106 l 132 1 z m 242 346 l 242 510 l 460 510 l 460 346 z "},"Š":{"ha":653,"x_min":0,"x_max":0,"o":"m 214 101 l 433 101 l 433 231 l 111 417 l 111 778 l 542 778 l 542 556 l 439 556 l 439 676 l 219 676 l 219 514 l 539 329 l 539 1 l 111 0 l 111 222 l 214 222 z m 306 828 l 494 1017 l 419 1089 l 306 964 l 192 1089 l 117 1017 z "},"š":{"ha":653,"x_min":0,"x_max":0,"o":"m 214 101 l 433 101 l 433 217 l 111 292 l 111 611 l 542 611 l 542 389 l 439 389 l 439 510 l 219 510 l 219 389 l 539 315 l 539 1 l 111 0 l 111 153 l 214 153 z m 306 661 l 494 850 l 419 922 l 306 797 l 192 922 l 117 850 z "},"Ý":{"ha":653,"x_min":0,"x_max":0,"o":"m 542 778 l 433 778 l 433 350 l 214 350 l 214 778 l 114 778 l 114 250 l 433 250 l 433 97 l 111 97 l 111 0 l 542 0 z m 389 1083 l 464 1000 l 186 819 l 111 903 z "},"ý":{"ha":653,"x_min":0,"x_max":0,"o":"m 542 611 l 433 611 l 433 100 l 214 100 l 214 611 l 114 611 l 114 0 l 433 0 l 433 -153 l 111 -153 l 111 -250 l 542 -250 z m 389 944 l 464 861 l 186 681 l 111 764 z "},"Ž":{"ha":653,"x_min":0,"x_max":0,"o":"m 247 97 l 542 672 l 542 778 l 111 778 l 111 676 l 433 676 l 111 97 l 111 0 l 531 0 l 531 97 z m 306 814 l 494 1003 l 419 1075 l 306 950 l 192 1075 l 117 1003 z "},"ž":{"ha":653,"x_min":0,"x_max":0,"o":"m 247 97 l 542 506 l 542 611 l 111 611 l 111 510 l 433 510 l 111 97 l 111 0 l 531 0 l 531 97 z m 306 661 l 494 850 l 419 922 l 306 797 l 192 922 l 117 850 z "},"¦":{"ha":325,"x_min":0,"x_max":0,"o":"m 111 278 l 214 278 l 214 -194 l 111 -194 z m 111 917 l 214 917 l 214 444 l 111 444 z "},"−":{"ha":556,"x_min":0,"x_max":0,"o":"m 535 278 l 21 278 l 21 375 l 535 375 z "},"×":{"ha":696,"x_min":0,"x_max":0,"o":"m 519 60 l 599 139 l 426 310 l 599 482 l 519 561 l 347 389 l 176 561 l 97 482 l 269 310 l 97 139 l 176 60 l 347 232 z "}," ":{"ha":278,"x_min":0,"x_max":0,"o":""},"!":{"ha":325,"x_min":0,"x_max":0,"o":"m 214 307 l 111 306 l 111 917 l 214 917 z m 214 0 l 111 0 l 111 181 l 214 181 z "},"\"":{"ha":297,"x_min":0,"x_max":0,"o":"m 28 917 l 131 917 l 131 653 l 28 653 z m 167 917 l 269 917 l 269 653 l 167 653 z "},"#":{"ha":569,"x_min":0,"x_max":0,"o":"m 335 556 l 249 556 l 249 668 l 335 668 z m 335 389 l 444 389 l 444 460 l 514 460 l 514 556 l 443 556 l 443 668 l 514 668 l 514 764 l 443 764 l 443 863 l 333 863 l 333 764 l 249 764 l 249 863 l 139 863 l 139 764 l 56 764 l 56 668 l 140 668 l 140 556 l 56 556 l 56 460 l 140 460 l 140 389 l 250 389 l 250 460 l 335 460 z "},"$":{"ha":653,"x_min":0,"x_max":0,"o":"m 374 101 l 374 239 l 433 231 l 433 101 z m 276 510 l 276 367 l 219 375 l 219 510 z m 374 764 l 276 764 l 276 611 l 111 611 l 111 278 l 276 254 l 276 101 l 214 101 l 214 153 l 111 153 l 111 0 l 276 0 l 276 -111 l 374 -111 l 374 1 l 539 1 l 539 329 l 374 353 l 374 510 l 439 510 l 439 444 l 542 444 l 542 611 l 374 611 z "},"%":{"ha":731,"x_min":0,"x_max":0,"o":"m 539 799 l 628 747 l 169 -46 l 81 6 z m 28 486 l 286 486 l 286 769 l 28 769 z m 211 710 l 211 544 l 107 544 l 107 708 z m 444 0 l 703 0 l 703 283 l 444 283 z m 628 222 l 628 58 l 524 58 l 524 222 z "},"&":{"ha":694,"x_min":0,"x_max":0,"o":"m 514 556 l 411 556 l 411 444 l 317 444 l 317 681 l 439 681 l 439 778 l 208 778 l 208 444 l 111 444 l 111 0 l 514 0 l 514 349 l 583 349 l 583 444 l 514 444 z m 411 104 l 219 104 l 219 347 l 411 347 z "},"'":{"ha":158,"x_min":0,"x_max":0,"o":"m 28 917 l 131 917 l 131 653 l 28 653 z "},"(":{"ha":325,"x_min":0,"x_max":0,"o":"m 310 -153 l 310 -42 l 214 -42 l 214 806 l 310 806 l 310 917 l 111 917 l 111 -153 z "},")":{"ha":325,"x_min":0,"x_max":0,"o":"m 111 -153 l 111 -42 l 207 -42 l 207 806 l 111 806 l 111 917 l 310 917 l 310 -153 z "},"*":{"ha":667,"x_min":0,"x_max":0,"o":"m 160 347 l 257 347 l 257 500 l 354 431 l 424 528 l 313 579 l 424 649 l 354 736 l 257 681 l 257 833 l 160 833 l 160 681 l 63 736 l 7 653 l 118 579 l 7 528 l 63 431 l 160 500 z "},"+":{"ha":667,"x_min":0,"x_max":0,"o":"m 271 0 l 382 0 l 382 278 l 632 278 l 632 375 l 382 375 l 382 611 l 271 611 l 271 375 l 35 375 l 35 278 l 271 278 z "},",":{"ha":325,"x_min":0,"x_max":0,"o":"m 69 -111 l 172 -111 l 242 167 l 139 167 z "},"-":{"ha":444,"x_min":0,"x_max":0,"o":"m 410 278 l 35 278 l 35 375 l 410 375 z "},".":{"ha":325,"x_min":0,"x_max":0,"o":"m 111 167 l 214 167 l 214 0 l 111 0 z "},"/":{"ha":325,"x_min":0,"x_max":0,"o":"m 229 915 l 329 893 l 96 -207 l -4 -185 z "},":":{"ha":325,"x_min":0,"x_max":0,"o":"m 111 167 l 214 167 l 214 0 l 111 0 z m 111 611 l 214 611 l 214 444 l 111 444 z "},";":{"ha":325,"x_min":0,"x_max":0,"o":"m 111 611 l 214 611 l 214 444 l 111 444 z m 69 -111 l 172 -111 l 242 167 l 139 167 z "},"<":{"ha":694,"x_min":0,"x_max":0,"o":"m 14 319 l 594 6 l 681 97 l 240 319 l 681 542 l 594 633 z "},"=":{"ha":667,"x_min":0,"x_max":0,"o":"m 632 333 l 35 333 l 35 431 l 632 431 z m 632 167 l 35 167 l 35 264 l 632 264 z "},">":{"ha":694,"x_min":0,"x_max":0,"o":"m 681 319 l 100 6 l 14 97 l 454 319 l 14 542 l 100 633 z "},"?":{"ha":653,"x_min":0,"x_max":0,"o":"m 111 861 l 110 761 l 439 761 l 439 485 l 250 485 l 250 264 l 356 264 l 356 389 l 539 389 l 539 861 z m 250 167 l 353 167 l 353 0 l 250 0 z "},"@":{"ha":792,"x_min":0,"x_max":0,"o":"m 681 -208 l 681 -100 l 221 -100 l 221 514 l 572 514 l 572 361 l 336 361 l 336 0 l 681 0 l 681 611 l 111 611 l 111 -208 z m 572 100 l 436 100 l 436 261 l 572 261 z "},"A":{"ha":653,"x_min":0,"x_max":0,"o":"m 214 681 l 433 681 l 433 444 l 214 444 z m 542 0 l 542 778 l 111 778 l 111 0 l 214 0 l 214 347 l 433 347 l 433 0 z "},"B":{"ha":653,"x_min":0,"x_max":0,"o":"m 214 681 l 378 681 l 378 458 l 214 458 z m 111 0 l 542 0 l 542 458 l 486 458 l 486 778 l 111 778 z m 214 104 l 214 361 l 433 361 l 433 104 z "},"C":{"ha":653,"x_min":0,"x_max":0,"o":"m 439 676 l 439 556 l 542 556 l 542 778 l 111 778 l 111 0 l 531 0 l 531 97 l 219 97 l 219 676 z "},"D":{"ha":653,"x_min":0,"x_max":0,"o":"m 214 106 l 214 679 l 392 679 l 419 639 l 419 139 l 392 106 z m 111 0 l 403 0 l 542 167 l 542 597 l 417 778 l 111 778 z "},"E":{"ha":653,"x_min":0,"x_max":0,"o":"m 542 106 l 214 106 l 214 415 l 542 415 l 542 513 l 214 513 l 214 681 l 542 681 l 542 779 l 111 778 l 111 0 l 542 0 z "},"F":{"ha":653,"x_min":0,"x_max":0,"o":"m 214 0 l 214 415 l 542 415 l 542 513 l 214 513 l 214 681 l 542 681 l 542 779 l 111 778 l 111 0 z "},"G":{"ha":653,"x_min":0,"x_max":0,"o":"m 306 514 l 306 418 l 438 418 l 438 97 l 219 97 l 219 675 l 542 675 l 542 778 l 111 778 l 111 0 l 542 0 l 542 514 z "},"H":{"ha":653,"x_min":0,"x_max":0,"o":"m 433 514 l 433 778 l 542 778 l 542 0 l 433 0 l 433 417 l 214 417 l 214 0 l 111 0 l 111 778 l 214 778 l 214 514 z "},"I":{"ha":440,"x_min":0,"x_max":0,"o":"m 168 678 l 168 100 l 78 100 l 78 0 l 371 0 l 371 100 l 271 100 l 271 678 l 364 678 l 364 778 l 69 778 l 69 678 z "},"J":{"ha":313,"x_min":0,"x_max":0,"o":"m 139 778 l 139 -108 l 0 -108 l 0 -208 l 243 -208 l 243 778 z "},"K":{"ha":653,"x_min":0,"x_max":0,"o":"m 583 0 l 424 0 l 235 347 l 214 347 l 214 0 l 111 0 l 111 778 l 214 778 l 214 444 l 422 778 l 569 778 l 313 410 z "},"L":{"ha":653,"x_min":0,"x_max":0,"o":"m 214 106 l 214 779 l 111 778 l 111 0 l 542 0 l 542 106 z "},"M":{"ha":972,"x_min":0,"x_max":0,"o":"m 542 0 l 542 681 l 753 681 l 753 0 l 861 0 l 861 778 l 111 778 l 111 0 l 214 0 l 214 681 l 431 681 l 431 0 z "},"N":{"ha":653,"x_min":0,"x_max":0,"o":"m 210 779 l 433 347 l 433 778 l 542 778 l 542 0 l 460 0 l 214 486 l 214 0 l 111 0 l 111 778 z "},"O":{"ha":653,"x_min":0,"x_max":0,"o":"m 214 106 l 214 679 l 433 679 l 433 106 z m 111 0 l 542 0 l 542 778 l 111 778 z "},"P":{"ha":625,"x_min":0,"x_max":0,"o":"m 514 347 l 514 778 l 111 778 l 111 0 l 215 0 l 214 347 z m 406 444 l 214 444 l 214 681 l 406 681 z "},"Q":{"ha":653,"x_min":0,"x_max":0,"o":"m 436 -208 l 436 0 l 542 0 l 542 778 l 111 778 l 111 0 l 333 0 l 333 -208 z m 433 106 l 214 106 l 214 679 l 433 681 z "},"R":{"ha":653,"x_min":0,"x_max":0,"o":"m 583 0 l 394 347 l 514 347 l 514 778 l 111 778 l 111 0 l 215 0 l 214 347 l 258 347 l 447 0 z m 406 444 l 214 444 l 214 681 l 406 681 z "},"S":{"ha":653,"x_min":0,"x_max":0,"o":"m 214 101 l 433 101 l 433 231 l 111 417 l 111 778 l 542 778 l 542 556 l 439 556 l 439 676 l 219 676 l 219 514 l 539 329 l 539 1 l 111 0 l 111 222 l 214 222 z "},"T":{"ha":653,"x_min":0,"x_max":0,"o":"m 381 0 l 381 678 l 542 678 l 542 778 l 110 778 l 110 678 l 278 678 l 278 0 z "},"U":{"ha":653,"x_min":0,"x_max":0,"o":"m 542 778 l 433 778 l 433 97 l 214 97 l 214 778 l 111 778 l 111 0 l 542 0 z "},"V":{"ha":611,"x_min":0,"x_max":0,"o":"m 556 778 l 419 778 l 322 111 l 283 111 l 186 778 l 56 778 l 194 0 l 417 0 z "},"W":{"ha":972,"x_min":0,"x_max":0,"o":"m 431 778 l 431 97 l 219 97 l 219 778 l 111 778 l 111 0 l 861 0 l 861 778 l 758 778 l 758 97 l 542 97 l 542 778 z "},"X":{"ha":653,"x_min":0,"x_max":0,"o":"m 611 0 l 450 417 l 597 778 l 447 778 l 336 444 l 311 444 l 200 778 l 56 778 l 203 417 l 42 0 l 186 0 l 311 347 l 336 347 l 461 0 z "},"Y":{"ha":653,"x_min":0,"x_max":0,"o":"m 542 778 l 433 778 l 433 350 l 214 350 l 214 778 l 114 778 l 114 250 l 433 250 l 433 97 l 111 97 l 111 0 l 542 0 z "},"Z":{"ha":653,"x_min":0,"x_max":0,"o":"m 247 97 l 542 672 l 542 778 l 111 778 l 111 676 l 433 676 l 111 97 l 111 0 l 531 0 l 531 97 z "},"[":{"ha":310,"x_min":0,"x_max":0,"o":"m 338 -264 l 338 -153 l 103 -153 l 103 806 l 338 806 l 338 917 l 0 917 l 0 -264 z "},"\\":{"ha":325,"x_min":0,"x_max":0,"o":"m 96 915 l -4 893 l 229 -207 l 329 -185 z "},"]":{"ha":310,"x_min":0,"x_max":0,"o":"m -28 -264 l -28 -153 l 207 -153 l 207 806 l -28 806 l -28 917 l 310 917 l 310 -264 z "},"^":{"ha":653,"x_min":0,"x_max":0,"o":"m 306 922 l 117 733 l 192 661 l 306 786 l 419 661 l 494 733 z "},"_":{"ha":667,"x_min":0,"x_max":0,"o":"m 632 -153 l 35 -153 l 35 -56 l 632 -56 z "},"`":{"ha":653,"x_min":0,"x_max":0,"o":"m 186 917 l 111 833 l 389 653 l 464 736 z "},"a":{"ha":653,"x_min":0,"x_max":0,"o":"m 433 361 l 114 361 l 114 0 l 542 0 l 542 611 l 111 611 l 111 514 l 433 514 z m 433 261 l 433 100 l 214 100 l 214 261 z "},"b":{"ha":653,"x_min":0,"x_max":0,"o":"m 214 611 l 214 917 l 111 917 l 111 0 l 542 0 l 542 611 z m 214 100 l 214 514 l 433 514 l 433 101 z "},"c":{"ha":653,"x_min":0,"x_max":0,"o":"m 439 510 l 439 389 l 542 389 l 542 611 l 111 611 l 111 0 l 531 0 l 531 97 l 219 97 l 219 510 z "},"d":{"ha":653,"x_min":0,"x_max":0,"o":"m 439 611 l 111 611 l 111 0 l 542 0 l 542 917 l 439 917 z m 439 100 l 219 101 l 219 514 l 439 514 z "},"e":{"ha":653,"x_min":0,"x_max":0,"o":"m 219 250 l 539 250 l 539 611 l 111 611 l 111 0 l 542 0 l 542 97 l 219 97 z m 219 350 l 219 511 l 439 511 l 439 350 z "},"f":{"ha":653,"x_min":0,"x_max":0,"o":"m 111 610 l 111 514 l 244 514 l 244 0 l 347 0 l 347 514 l 542 514 l 542 610 l 347 610 l 347 779 l 542 779 l 542 875 l 244 875 l 244 610 z "},"g":{"ha":653,"x_min":0,"x_max":0,"o":"m 433 0 l 114 0 l 114 611 l 542 611 l 542 -250 l 111 -250 l 111 -153 l 433 -153 z m 433 100 l 433 511 l 214 511 l 214 100 z "},"h":{"ha":653,"x_min":0,"x_max":0,"o":"m 542 0 l 433 0 l 433 514 l 214 514 l 214 0 l 111 0 l 111 917 l 214 917 l 214 611 l 542 611 z "},"i":{"ha":325,"x_min":0,"x_max":0,"o":"m 111 610 l 214 611 l 214 0 l 111 0 z m 111 917 l 214 917 l 214 736 l 111 736 z "},"j":{"ha":324,"x_min":0,"x_max":0,"o":"m 110 917 l 110 736 l 213 736 l 213 917 z m 0 -208 l 213 -208 l 213 610 l 110 610 l 110 -106 l 0 -106 z "},"k":{"ha":653,"x_min":0,"x_max":0,"o":"m 583 0 l 424 0 l 235 268 l 214 268 l 214 0 l 111 0 l 111 917 l 214 917 l 214 351 l 422 610 l 569 610 l 313 317 z "},"l":{"ha":325,"x_min":0,"x_max":0,"o":"m 111 917 l 214 917 l 214 0 l 111 0 z "},"m":{"ha":972,"x_min":0,"x_max":0,"o":"m 542 0 l 542 514 l 753 514 l 753 0 l 861 0 l 861 611 l 111 611 l 111 0 l 214 0 l 214 514 l 431 514 l 431 0 z "},"n":{"ha":653,"x_min":0,"x_max":0,"o":"m 542 0 l 433 0 l 433 514 l 214 514 l 214 0 l 111 0 l 111 611 l 542 611 z "},"o":{"ha":653,"x_min":0,"x_max":0,"o":"m 111 0 l 542 0 l 542 611 l 111 611 z m 439 511 l 439 97 l 219 97 l 219 510 z "},"p":{"ha":653,"x_min":0,"x_max":0,"o":"m 214 0 l 214 -306 l 111 -306 l 111 611 l 542 611 l 542 0 z m 214 511 l 214 97 l 433 97 l 433 510 z "},"q":{"ha":653,"x_min":0,"x_max":0,"o":"m 439 0 l 439 -306 l 542 -306 l 542 611 l 111 611 l 111 0 z m 439 511 l 439 97 l 219 97 l 219 510 z "},"r":{"ha":556,"x_min":0,"x_max":0,"o":"m 369 511 l 369 389 l 472 389 l 472 611 l 111 611 l 111 0 l 219 0 l 219 510 z "},"s":{"ha":653,"x_min":0,"x_max":0,"o":"m 214 101 l 433 101 l 433 217 l 111 292 l 111 611 l 542 611 l 542 389 l 439 389 l 439 510 l 219 510 l 219 389 l 539 315 l 539 1 l 111 0 l 111 153 l 214 153 z "},"t":{"ha":597,"x_min":0,"x_max":0,"o":"m 486 0 l 486 97 l 339 97 l 339 514 l 486 514 l 486 611 l 339 611 l 339 792 l 236 792 l 236 611 l 111 611 l 111 514 l 236 514 l 236 0 z "},"u":{"ha":653,"x_min":0,"x_max":0,"o":"m 542 611 l 433 611 l 433 97 l 214 97 l 214 611 l 111 611 l 111 0 l 542 0 z "},"v":{"ha":611,"x_min":0,"x_max":0,"o":"m 569 611 l 442 611 l 331 97 l 292 97 l 181 611 l 42 611 l 208 0 l 403 0 z "},"w":{"ha":972,"x_min":0,"x_max":0,"o":"m 431 611 l 431 97 l 219 97 l 219 611 l 111 611 l 111 0 l 861 0 l 861 611 l 758 611 l 758 97 l 542 97 l 542 611 z "},"x":{"ha":653,"x_min":0,"x_max":0,"o":"m 611 0 l 436 319 l 597 611 l 461 611 l 336 361 l 311 361 l 186 611 l 56 611 l 217 319 l 42 0 l 172 0 l 311 250 l 336 250 l 475 0 z "},"y":{"ha":653,"x_min":0,"x_max":0,"o":"m 542 611 l 433 611 l 433 100 l 214 100 l 214 611 l 114 611 l 114 0 l 433 0 l 433 -153 l 111 -153 l 111 -250 l 542 -250 z "},"z":{"ha":653,"x_min":0,"x_max":0,"o":"m 247 97 l 542 506 l 542 611 l 111 611 l 111 510 l 433 510 l 111 97 l 111 0 l 531 0 l 531 97 z "},"{":{"ha":460,"x_min":0,"x_max":0,"o":"m 0 401 l 0 292 l 150 292 l 150 -250 l 488 -250 l 488 -139 l 253 -139 l 253 806 l 488 806 l 488 917 l 150 917 l 150 401 z "},"|":{"ha":325,"x_min":0,"x_max":0,"o":"m 111 917 l 214 917 l 214 -208 l 111 -208 z "},"}":{"ha":460,"x_min":0,"x_max":0,"o":"m 460 401 l 460 292 l 310 292 l 310 -250 l -28 -250 l -28 -139 l 207 -139 l 207 806 l -28 806 l -28 917 l 310 917 l 310 401 z "},"~":{"ha":694,"x_min":0,"x_max":0,"o":"m 157 432 l 157 285 l 56 285 l 56 535 l 403 535 l 403 394 l 532 394 l 532 535 l 638 535 l 638 285 l 293 285 l 293 432 z "},"Ä":{"ha":653,"x_min":0,"x_max":0,"o":"m 214 681 l 433 681 l 433 444 l 214 444 z m 542 0 l 542 778 l 111 778 l 111 0 l 214 0 l 214 347 l 433 347 l 433 0 z m 111 1028 l 214 1028 l 214 847 l 111 847 z m 361 1028 l 464 1028 l 464 847 l 361 847 z "},"Å":{"ha":653,"x_min":0,"x_max":0,"o":"m 214 681 l 433 681 l 433 444 l 214 444 z m 542 0 l 542 778 l 111 778 l 111 0 l 214 0 l 214 347 l 433 347 l 433 0 z m 114 831 l 372 831 l 372 1114 l 114 1114 z m 297 1054 l 297 889 l 193 889 l 193 1053 z "},"Ç":{"ha":653,"x_min":0,"x_max":0,"o":"m 440 0 l 531 0 l 531 97 l 219 97 l 219 676 l 439 676 l 439 556 l 542 556 l 542 778 l 111 778 l 111 0 l 335 0 l 264 -236 l 381 -236 z "},"É":{"ha":653,"x_min":0,"x_max":0,"o":"m 542 106 l 214 106 l 214 415 l 542 415 l 542 513 l 214 513 l 214 681 l 542 681 l 542 779 l 111 778 l 111 0 l 542 0 z m 389 1083 l 464 1000 l 186 819 l 111 903 z "},"Ñ":{"ha":653,"x_min":0,"x_max":0,"o":"m 181 983 l 181 865 l 100 865 l 100 1065 l 378 1065 l 378 953 l 481 953 l 481 1065 l 565 1065 l 565 865 l 290 865 l 290 983 z m 210 779 l 433 347 l 433 778 l 542 778 l 542 0 l 460 0 l 214 486 l 214 0 l 111 0 l 111 778 z "},"Ö":{"ha":653,"x_min":0,"x_max":0,"o":"m 214 106 l 214 679 l 433 679 l 433 106 z m 111 0 l 542 0 l 542 778 l 111 778 z "},"Ü":{"ha":653,"x_min":0,"x_max":0,"o":"m 542 778 l 433 778 l 433 97 l 214 97 l 214 778 l 111 778 l 111 0 l 542 0 z "},"á":{"ha":653,"x_min":0,"x_max":0,"o":"m 433 361 l 114 361 l 114 0 l 542 0 l 542 611 l 111 611 l 111 514 l 433 514 z m 433 261 l 433 100 l 214 100 l 214 261 z m 389 917 l 464 833 l 186 653 l 111 736 z "},"à":{"ha":653,"x_min":0,"x_max":0,"o":"m 433 361 l 114 361 l 114 0 l 542 0 l 542 611 l 111 611 l 111 514 l 433 514 z m 433 261 l 433 100 l 214 100 l 214 261 z m 186 917 l 111 833 l 389 653 l 464 736 z "},"â":{"ha":653,"x_min":0,"x_max":0,"o":"m 433 361 l 114 361 l 114 0 l 542 0 l 542 611 l 111 611 l 111 514 l 433 514 z m 433 261 l 433 100 l 214 100 l 214 261 z m 306 922 l 117 733 l 192 661 l 306 786 l 419 661 l 494 733 z "},"ä":{"ha":653,"x_min":0,"x_max":0,"o":"m 433 361 l 114 361 l 114 0 l 542 0 l 542 611 l 111 611 l 111 514 l 433 514 z m 433 261 l 433 100 l 214 100 l 214 261 z m 111 917 l 214 917 l 214 736 l 111 736 z m 361 917 l 464 917 l 464 736 l 361 736 z "},"ã":{"ha":653,"x_min":0,"x_max":0,"o":"m 181 858 l 181 740 l 100 740 l 100 940 l 378 940 l 378 828 l 481 828 l 481 940 l 565 940 l 565 740 l 290 740 l 290 858 z m 433 361 l 114 361 l 114 0 l 542 0 l 542 611 l 111 611 l 111 514 l 433 514 z m 433 261 l 433 100 l 214 100 l 214 261 z "},"å":{"ha":653,"x_min":0,"x_max":0,"o":"m 433 361 l 114 361 l 114 0 l 542 0 l 542 611 l 111 611 l 111 514 l 433 514 z m 433 261 l 433 100 l 214 100 l 214 261 z m 114 706 l 372 706 l 372 989 l 114 989 z m 297 929 l 297 764 l 193 764 l 193 928 z "},"ç":{"ha":653,"x_min":0,"x_max":0,"o":"m 264 -236 l 381 -236 l 440 0 l 531 0 l 531 97 l 219 97 l 219 510 l 439 510 l 439 389 l 542 389 l 542 611 l 111 611 l 111 0 l 335 0 z "},"é":{"ha":653,"x_min":0,"x_max":0,"o":"m 219 250 l 539 250 l 539 611 l 111 611 l 111 0 l 542 0 l 542 97 l 219 97 z m 219 350 l 219 511 l 439 511 l 439 350 z m 389 917 l 464 833 l 186 653 l 111 736 z "},"è":{"ha":653,"x_min":0,"x_max":0,"o":"m 219 250 l 539 250 l 539 611 l 111 611 l 111 0 l 542 0 l 542 97 l 219 97 z m 219 350 l 219 511 l 439 511 l 439 350 z m 186 917 l 111 833 l 389 653 l 464 736 z "},"ê":{"ha":653,"x_min":0,"x_max":0,"o":"m 219 250 l 539 250 l 539 611 l 111 611 l 111 0 l 542 0 l 542 97 l 219 97 z m 219 350 l 219 511 l 439 511 l 439 350 z m 306 922 l 117 733 l 192 661 l 306 786 l 419 661 l 494 733 z "},"ë":{"ha":653,"x_min":0,"x_max":0,"o":"m 219 250 l 539 250 l 539 611 l 111 611 l 111 0 l 542 0 l 542 97 l 219 97 z m 219 350 l 219 511 l 439 511 l 439 350 z m 111 917 l 214 917 l 214 736 l 111 736 z m 361 917 l 464 917 l 464 736 l 361 736 z "},"í":{"ha":325,"x_min":0,"x_max":0,"o":"m 111 610 l 214 611 l 214 0 l 111 0 z m 264 917 l 339 833 l 61 653 l -14 736 z "},"ì":{"ha":325,"x_min":0,"x_max":0,"o":"m 111 610 l 214 611 l 214 0 l 111 0 z m 61 917 l -14 833 l 264 653 l 339 736 z "},"î":{"ha":325,"x_min":0,"x_max":0,"o":"m 111 610 l 214 611 l 214 0 l 111 0 z m 167 922 l -22 733 l 53 661 l 167 786 l 281 661 l 356 733 z "},"ï":{"ha":325,"x_min":0,"x_max":0,"o":"m 111 610 l 214 611 l 214 0 l 111 0 z m -14 917 l 89 917 l 89 736 l -14 736 z m 236 917 l 339 917 l 339 736 l 236 736 z "},"ñ":{"ha":653,"x_min":0,"x_max":0,"o":"m 181 844 l 181 726 l 100 726 l 100 926 l 378 926 l 378 814 l 481 814 l 481 926 l 565 926 l 565 726 l 290 726 l 290 844 z m 542 0 l 433 0 l 433 514 l 214 514 l 214 0 l 111 0 l 111 611 l 542 611 z "},"ó":{"ha":653,"x_min":0,"x_max":0,"o":"m 111 0 l 542 0 l 542 611 l 111 611 z m 439 511 l 439 97 l 219 97 l 219 510 z m 389 917 l 464 833 l 186 653 l 111 736 z "},"ò":{"ha":653,"x_min":0,"x_max":0,"o":"m 111 0 l 542 0 l 542 611 l 111 611 z m 439 511 l 439 97 l 219 97 l 219 510 z m 186 917 l 111 833 l 389 653 l 464 736 z "},"ô":{"ha":653,"x_min":0,"x_max":0,"o":"m 111 0 l 542 0 l 542 611 l 111 611 z m 439 511 l 439 97 l 219 97 l 219 510 z m 306 922 l 117 733 l 192 661 l 306 786 l 419 661 l 494 733 z "},"ö":{"ha":653,"x_min":0,"x_max":0,"o":"m 111 0 l 542 0 l 542 611 l 111 611 z m 439 511 l 439 97 l 219 97 l 219 510 z m 111 917 l 214 917 l 214 736 l 111 736 z m 361 917 l 464 917 l 464 736 l 361 736 z "},"õ":{"ha":653,"x_min":0,"x_max":0,"o":"m 181 844 l 181 726 l 100 726 l 100 926 l 378 926 l 378 814 l 481 814 l 481 926 l 565 926 l 565 726 l 290 726 l 290 844 z m 111 0 l 542 0 l 542 611 l 111 611 z m 439 511 l 439 97 l 219 97 l 219 510 z "},"ú":{"ha":653,"x_min":0,"x_max":0,"o":"m 542 611 l 433 611 l 433 97 l 214 97 l 214 611 l 111 611 l 111 0 l 542 0 z m 389 917 l 464 833 l 186 653 l 111 736 z "},"ù":{"ha":653,"x_min":0,"x_max":0,"o":"m 542 611 l 433 611 l 433 97 l 214 97 l 214 611 l 111 611 l 111 0 l 542 0 z m 186 917 l 111 833 l 389 653 l 464 736 z "},"û":{"ha":653,"x_min":0,"x_max":0,"o":"m 542 611 l 433 611 l 433 97 l 214 97 l 214 611 l 111 611 l 111 0 l 542 0 z m 306 922 l 117 733 l 192 661 l 306 786 l 419 661 l 494 733 z "},"ü":{"ha":653,"x_min":0,"x_max":0,"o":"m 542 611 l 433 611 l 433 97 l 214 97 l 214 611 l 111 611 l 111 0 l 542 0 z m 111 917 l 214 917 l 214 736 l 111 736 z m 361 917 l 464 917 l 464 736 l 361 736 z "},"¢":{"ha":653,"x_min":0,"x_max":0,"o":"m 285 510 l 285 97 l 219 97 l 219 510 z m 542 389 l 542 611 l 382 611 l 382 764 l 285 764 l 285 611 l 111 611 l 111 0 l 285 0 l 285 -111 l 382 -111 l 382 0 l 531 0 l 531 97 l 382 97 l 382 510 l 439 510 l 439 389 z "},"£":{"ha":653,"x_min":0,"x_max":0,"o":"m 111 96 l 111 0 l 549 0 l 549 96 l 347 96 l 347 278 l 542 278 l 542 374 l 347 374 l 347 515 l 542 515 l 542 611 l 244 611 l 244 374 l 111 374 l 111 278 l 244 278 l 244 96 z "},"§":{"ha":507,"x_min":0,"x_max":0,"o":"m 324 350 l 324 263 l 243 232 l 182 247 l 182 335 l 253 368 z m 393 243 l 393 419 l 182 468 l 182 549 l 328 549 l 328 468 l 396 468 l 396 615 l 111 615 l 111 404 l 190 386 l 111 356 l 111 175 l 324 125 l 324 49 l 179 49 l 179 83 l 111 83 l 111 -18 l 393 -17 l 393 190 l 300 213 z "},"•":{"ha":556,"x_min":0,"x_max":0,"o":"m 139 611 l 139 278 l 417 278 l 417 611 z "},"¶":{"ha":556,"x_min":0,"x_max":0,"o":"m 111 347 l 111 778 l 444 778 l 444 0 l 340 0 l 340 347 z m 219 444 l 340 444 l 340 681 l 219 681 z "},"ß":{"ha":908,"x_min":0,"x_max":0,"o":"m 111 875 l 111 0 l 214 0 l 214 779 l 408 779 l 408 875 z m 469 101 l 689 101 l 689 217 l 367 292 l 367 611 l 797 611 l 797 389 l 694 389 l 694 510 l 475 510 l 475 389 l 794 315 l 794 1 l 367 0 l 367 153 l 469 153 z "},"®":{"ha":903,"x_min":0,"x_max":0,"o":"m 214 3 l 214 707 l 683 707 l 683 3 z m 111 -103 l 792 -103 l 792 806 l 111 806 z m 639 139 l 519 319 l 569 319 l 569 583 l 319 583 l 319 139 l 408 139 l 408 319 l 439 319 l 531 139 z m 489 389 l 408 389 l 408 500 l 489 500 z "},"©":{"ha":903,"x_min":0,"x_max":0,"o":"m 494 482 l 494 389 l 583 389 l 583 583 l 319 583 l 319 139 l 572 139 l 572 236 l 414 236 l 414 482 z m 214 3 l 214 707 l 683 707 l 683 3 z m 111 -103 l 792 -103 l 792 806 l 111 806 z "},"™":{"ha":972,"x_min":0,"x_max":0,"o":"m 700 425 l 700 692 l 785 692 l 785 425 l 892 425 l 892 792 l 400 792 l 400 425 l 503 425 l 503 692 l 592 692 l 592 425 z m 297 425 l 297 525 l 217 525 l 217 692 l 297 692 l 297 792 l 217 792 l 217 900 l 114 900 l 114 792 l 39 792 l 39 692 l 114 692 l 114 425 z "},"´":{"ha":653,"x_min":0,"x_max":0,"o":"m 389 917 l 464 833 l 186 653 l 111 736 z "},"¨":{"ha":653,"x_min":0,"x_max":0,"o":"m 111 917 l 214 917 l 214 736 l 111 736 z m 361 917 l 464 917 l 464 736 l 361 736 z "},"≠":{"ha":667,"x_min":0,"x_max":0,"o":"m 632 111 l 632 208 l 369 208 l 410 278 l 632 278 l 632 375 l 465 375 l 525 478 l 440 526 l 353 375 l 35 375 l 35 278 l 297 278 l 257 208 l 35 208 l 35 111 l 201 111 l 142 8 l 226 -40 l 314 111 z "},"Æ":{"ha":986,"x_min":0,"x_max":0,"o":"m 433 0 l 875 0 l 875 106 l 547 106 l 547 346 l 875 346 l 875 443 l 547 443 l 547 681 l 875 681 l 875 779 b 111 778 364 778 507 778 l 111 0 l 214 0 l 214 346 l 433 346 z m 433 443 l 214 443 l 214 681 l 433 681 z "},"Ø":{"ha":653,"x_min":0,"x_max":0,"o":"m 351 679 l 214 161 l 214 679 z m 301 106 l 433 603 l 433 106 z m 111 0 l 171 0 l 153 -69 l 256 -69 l 274 0 l 542 0 l 542 778 l 479 778 l 506 875 l 403 875 l 376 778 l 111 778 z "},"∞":{"ha":694,"x_min":0,"x_max":0,"o":"m 293 214 l 143 214 l 143 432 l 293 432 z m 403 214 l 403 432 l 546 432 l 546 214 z m 42 104 l 651 104 l 653 535 l 42 535 z "},"±":{"ha":667,"x_min":0,"x_max":0,"o":"m 632 -167 l 35 -167 l 35 -69 l 632 -69 z m 271 0 l 382 0 l 382 278 l 632 278 l 632 375 l 382 375 l 382 611 l 271 611 l 271 375 l 35 375 l 35 278 l 271 278 z "},"≤":{"ha":528,"x_min":0,"x_max":0,"o":"m 69 417 l 383 158 l 458 236 l 226 417 l 458 597 l 383 675 z m 493 0 l 35 0 l 35 97 l 493 97 z "},"≥":{"ha":528,"x_min":0,"x_max":0,"o":"m 458 417 l 144 158 l 69 236 l 301 417 l 69 597 l 144 675 z m 35 0 l 493 0 l 493 97 l 35 97 z "},"¥":{"ha":694,"x_min":0,"x_max":0,"o":"m 646 167 l 646 264 l 556 264 l 556 333 l 646 333 l 646 431 l 556 431 l 556 778 l 447 778 l 447 628 l 228 628 l 228 778 l 128 778 l 128 528 l 447 528 l 447 431 l 49 431 l 49 333 l 447 333 l 447 264 l 49 264 l 49 167 l 447 167 l 447 97 l 125 97 l 125 0 l 556 0 l 556 167 z "},"æ":{"ha":986,"x_min":0,"x_max":0,"o":"m 114 389 l 114 0 l 875 0 l 875 97 l 553 97 l 553 222 l 872 222 l 872 611 l 111 611 l 111 514 l 433 514 l 433 389 z m 772 322 l 553 322 l 553 511 l 772 511 z m 433 100 l 214 100 l 214 289 l 433 289 z "},"ø":{"ha":653,"x_min":0,"x_max":0,"o":"m 111 0 l 190 0 l 153 -139 l 256 -139 l 293 0 l 542 0 l 542 611 l 460 611 l 506 778 l 403 778 l 357 611 l 111 611 z m 329 510 l 219 106 l 219 510 z m 439 510 l 439 97 l 319 97 l 432 510 z "},"¿":{"ha":653,"x_min":0,"x_max":0,"o":"m 538 0 l 539 100 l 210 100 l 210 376 l 399 376 l 399 597 l 293 597 l 293 472 l 110 472 l 110 0 z m 399 694 l 296 694 l 296 861 l 399 861 z "},"¡":{"ha":325,"x_min":0,"x_max":0,"o":"m 111 610 l 214 611 l 214 0 l 111 0 z m 111 917 l 214 917 l 214 736 l 111 736 z "},"ƒ":{"ha":653,"x_min":0,"x_max":0,"o":"m 111 346 l 111 250 l 244 250 l 244 -264 l 347 -264 l 347 250 l 542 250 l 542 346 l 347 346 l 347 515 l 542 515 l 542 611 l 244 611 l 244 346 z "},"«":{"ha":806,"x_min":0,"x_max":0,"o":"m 69 319 l 383 6 l 458 83 l 226 319 l 458 556 l 383 633 z m 347 319 l 661 6 l 736 83 l 504 319 l 736 556 l 661 633 z "},"»":{"ha":806,"x_min":0,"x_max":0,"o":"m 736 319 l 422 6 l 347 83 l 579 319 l 347 556 l 422 633 z m 458 319 l 144 6 l 69 83 l 301 319 l 69 556 l 144 633 z "}," ":{"ha":278,"x_min":0,"x_max":0,"o":""},"À":{"ha":653,"x_min":0,"x_max":0,"o":"m 214 681 l 433 681 l 433 444 l 214 444 z m 542 0 l 542 778 l 111 778 l 111 0 l 214 0 l 214 347 l 433 347 l 433 0 z m 186 1083 l 111 1000 l 389 819 l 464 903 z "},"Ã":{"ha":653,"x_min":0,"x_max":0,"o":"m 181 983 l 181 865 l 100 865 l 100 1065 l 378 1065 l 378 953 l 481 953 l 481 1065 l 565 1065 l 565 865 l 290 865 l 290 983 z m 214 681 l 433 681 l 433 444 l 214 444 z m 542 0 l 542 778 l 111 778 l 111 0 l 214 0 l 214 347 l 433 347 l 433 0 z "},"Õ":{"ha":653,"x_min":0,"x_max":0,"o":"m 181 983 l 181 865 l 100 865 l 100 1065 l 378 1065 l 378 953 l 481 953 l 481 1065 l 565 1065 l 565 865 l 290 865 l 290 983 z m 214 106 l 214 679 l 433 679 l 433 106 z m 111 0 l 542 0 l 542 778 l 111 778 z "},"Œ":{"ha":979,"x_min":0,"x_max":0,"o":"m 214 106 l 214 679 l 433 679 l 433 106 z m 868 106 l 542 106 l 542 415 l 868 415 l 868 513 l 542 513 l 542 681 l 868 681 l 868 779 b 111 778 357 778 499 778 l 111 0 l 868 0 z "},"œ":{"ha":958,"x_min":0,"x_max":0,"o":"m 111 0 l 847 0 l 847 97 l 525 97 l 525 250 l 844 250 l 844 611 l 111 611 z m 744 350 l 525 350 l 525 511 l 744 511 z m 439 97 l 219 97 l 219 510 l 439 511 z "},"–":{"ha":694,"x_min":0,"x_max":0,"o":"m 694 278 l 0 278 l 0 375 l 694 375 z "},"—":{"ha":1389,"x_min":0,"x_max":0,"o":"m 1389 278 l 0 278 l 0 375 l 1389 375 z "},"“":{"ha":353,"x_min":0,"x_max":0,"o":"m 194 583 l 311 583 l 381 861 l 278 861 z m 28 583 l 144 583 l 214 861 l 111 861 z "},"”":{"ha":339,"x_min":0,"x_max":0,"o":"m 139 583 l 242 583 l 311 861 l 194 861 z m -28 583 l 75 583 l 144 861 l 28 861 z "},"‘":{"ha":186,"x_min":0,"x_max":0,"o":"m 28 583 l 144 583 l 214 861 l 111 861 z "},"’":{"ha":172,"x_min":0,"x_max":0,"o":"m -28 583 l 75 583 l 144 861 l 28 861 z "},"÷":{"ha":694,"x_min":0,"x_max":0,"o":"m 299 139 l 401 139 l 401 0 l 299 0 z m 299 611 l 401 611 l 401 472 l 299 472 z m 639 264 l 56 264 l 56 361 l 639 361 z "},"ÿ":{"ha":653,"x_min":0,"x_max":0,"o":"m 542 611 l 433 611 l 433 100 l 214 100 l 214 611 l 114 611 l 114 0 l 433 0 l 433 -153 l 111 -153 l 111 -250 l 542 -250 z m 111 917 l 214 917 l 214 736 l 111 736 z m 361 917 l 464 917 l 464 736 l 361 736 z "},"Ÿ":{"ha":653,"x_min":0,"x_max":0,"o":"m 542 778 l 433 778 l 433 350 l 214 350 l 214 778 l 114 778 l 114 250 l 433 250 l 433 97 l 111 97 l 111 0 l 542 0 z m 111 1014 l 214 1014 l 214 833 l 111 833 z m 361 1014 l 464 1014 l 464 833 l 361 833 z "},"⁄":{"ha":653,"x_min":0,"x_max":0,"o":"m 542 603 l 196 1 l 111 50 l 457 651 z "},"¤":{"ha":653,"x_min":0,"x_max":0,"o":""},"‹":{"ha":528,"x_min":0,"x_max":0,"o":"m 69 319 l 383 6 l 458 83 l 226 319 l 458 556 l 383 633 z "},"›":{"ha":528,"x_min":0,"x_max":0,"o":"m 458 319 l 144 6 l 69 83 l 301 319 l 69 556 l 144 633 z "},"ﬁ":{"ha":881,"x_min":0,"x_max":0,"o":"m 111 610 l 111 514 l 244 514 l 244 0 l 347 0 l 347 514 l 542 514 l 542 610 l 347 610 l 347 779 l 542 779 l 542 875 l 244 875 l 244 610 z m 667 610 l 769 611 l 769 0 l 667 0 z m 667 917 l 769 917 l 769 736 l 667 736 z "},"ﬂ":{"ha":881,"x_min":0,"x_max":0,"o":"m 111 610 l 111 514 l 244 514 l 244 0 l 347 0 l 347 514 l 542 514 l 542 610 l 347 610 l 347 779 l 542 779 l 542 875 l 244 875 l 244 610 z m 667 917 l 769 917 l 769 0 l 667 0 z "},"‚":{"ha":172,"x_min":0,"x_max":0,"o":"m -28 -111 l 75 -111 l 144 167 l 28 167 z "},"„":{"ha":339,"x_min":0,"x_max":0,"o":"m 139 -111 l 242 -111 l 311 167 l 194 167 z m -28 -111 l 75 -111 l 144 167 l 28 167 z "},"Â":{"ha":653,"x_min":0,"x_max":0,"o":"m 214 681 l 433 681 l 433 444 l 214 444 z m 542 0 l 542 778 l 111 778 l 111 0 l 214 0 l 214 347 l 433 347 l 433 0 z m 306 1089 l 117 900 l 192 828 l 306 953 l 419 828 l 494 900 z "},"Ê":{"ha":653,"x_min":0,"x_max":0,"o":"m 542 106 l 214 106 l 214 415 l 542 415 l 542 513 l 214 513 l 214 681 l 542 681 l 542 779 l 111 778 l 111 0 l 542 0 z m 306 1089 l 117 900 l 192 828 l 306 953 l 419 828 l 494 900 z "},"Á":{"ha":653,"x_min":0,"x_max":0,"o":"m 214 681 l 433 681 l 433 444 l 214 444 z m 542 0 l 542 778 l 111 778 l 111 0 l 214 0 l 214 347 l 433 347 l 433 0 z m 389 1097 l 464 1014 l 186 833 l 111 917 z "},"Ë":{"ha":653,"x_min":0,"x_max":0,"o":"m 542 106 l 214 106 l 214 415 l 542 415 l 542 513 l 214 513 l 214 681 l 542 681 l 542 779 l 111 778 l 111 0 l 542 0 z m 111 1014 l 214 1014 l 214 833 l 111 833 z m 361 1014 l 464 1014 l 464 833 l 361 833 z "},"È":{"ha":653,"x_min":0,"x_max":0,"o":"m 542 106 l 214 106 l 214 415 l 542 415 l 542 513 l 214 513 l 214 681 l 542 681 l 542 779 l 111 778 l 111 0 l 542 0 z m 186 1069 l 111 986 l 389 806 l 464 889 z "},"Í":{"ha":440,"x_min":0,"x_max":0,"o":"m 168 678 l 168 100 l 78 100 l 78 0 l 371 0 l 371 100 l 271 100 l 271 678 l 364 678 l 364 778 l 69 778 l 69 678 z m 306 1083 l 381 1000 l 103 819 l 28 903 z "},"Î":{"ha":440,"x_min":0,"x_max":0,"o":"m 168 678 l 168 100 l 78 100 l 78 0 l 371 0 l 371 100 l 271 100 l 271 678 l 364 678 l 364 778 l 69 778 l 69 678 z m 208 1089 l 19 900 l 94 828 l 208 953 l 322 828 l 397 900 z "},"Ï":{"ha":440,"x_min":0,"x_max":0,"o":"m 168 678 l 168 100 l 78 100 l 78 0 l 371 0 l 371 100 l 271 100 l 271 678 l 364 678 l 364 778 l 69 778 l 69 678 z m 56 1028 l 158 1028 l 158 847 l 56 847 z m 306 1028 l 408 1028 l 408 847 l 306 847 z "},"Ì":{"ha":440,"x_min":0,"x_max":0,"o":"m 168 678 l 168 100 l 78 100 l 78 0 l 371 0 l 371 100 l 271 100 l 271 678 l 364 678 l 364 778 l 69 778 l 69 678 z m 103 1083 l 28 1000 l 306 819 l 381 903 z "},"Ó":{"ha":653,"x_min":0,"x_max":0,"o":"m 214 106 l 214 679 l 433 679 l 433 106 z m 111 0 l 542 0 l 542 778 l 111 778 z m 389 1083 l 464 1000 l 186 819 l 111 903 z "},"Ô":{"ha":653,"x_min":0,"x_max":0,"o":"m 214 106 l 214 679 l 433 679 l 433 106 z m 111 0 l 542 0 l 542 778 l 111 778 z m 306 1089 l 117 900 l 192 828 l 306 953 l 419 828 l 494 900 z "},"Ò":{"ha":653,"x_min":0,"x_max":0,"o":"m 214 106 l 214 679 l 433 679 l 433 106 z m 111 0 l 542 0 l 542 778 l 111 778 z m 186 1069 l 111 986 l 389 806 l 464 889 z "},"Ú":{"ha":653,"x_min":0,"x_max":0,"o":"m 542 778 l 433 778 l 433 97 l 214 97 l 214 778 l 111 778 l 111 0 l 542 0 z m 389 1083 l 464 1000 l 186 819 l 111 903 z "},"Û":{"ha":653,"x_min":0,"x_max":0,"o":"m 542 778 l 433 778 l 433 97 l 214 97 l 214 778 l 111 778 l 111 0 l 542 0 z m 306 1089 l 117 900 l 192 828 l 306 953 l 419 828 l 494 900 z "},"Ù":{"ha":653,"x_min":0,"x_max":0,"o":"m 542 778 l 433 778 l 433 97 l 214 97 l 214 778 l 111 778 l 111 0 l 542 0 z m 186 1083 l 111 1000 l 389 819 l 464 903 z "},"ı":{"ha":325,"x_min":0,"x_max":0,"o":"m 111 610 l 214 611 l 214 0 l 111 0 z "},"ˆ":{"ha":653,"x_min":0,"x_max":0,"o":"m 306 922 l 117 733 l 192 661 l 306 786 l 419 661 l 494 733 z "},"˘":{"ha":653,"x_min":0,"x_max":0,"o":"m 306 661 l 494 850 l 419 922 l 306 797 l 192 922 l 117 850 z "},"˚":{"ha":653,"x_min":0,"x_max":0,"o":"m 114 706 l 372 706 l 372 989 l 114 989 z m 297 929 l 297 764 l 193 764 l 193 928 z "},"¸":{"ha":653,"x_min":0,"x_max":0,"o":"m 264 -236 l 381 -236 l 450 42 l 347 42 z "}}}
